<svg width="512" height="512" viewBox="0 0 512 512" fill="none" xmlns="http://www.w3.org/2000/svg">
<g filter="url(#filter0_d_0_64)">
<path fill-rule="evenodd" clip-rule="evenodd" d="M462 178.314C462 173.423 462.002 168.531 461.972 163.64C461.947 159.519 461.9 155.4 461.788 151.281C461.546 142.305 461.016 133.251 459.42 124.375C457.801 115.37 455.157 106.99 450.991 98.8083C446.895 90.7669 441.544 83.4084 435.16 77.0289C428.778 70.6494 421.417 65.3024 413.373 61.209C405.183 57.0415 396.793 54.3985 387.779 52.78C378.902 51.186 369.846 50.6575 360.869 50.415C356.748 50.3035 352.626 50.2565 348.504 50.231C343.61 50.201 338.716 50.2035 333.822 50.2035L276.998 50H234.499L178.681 50.2035C173.777 50.2035 168.874 50.201 163.97 50.231C159.839 50.2565 155.71 50.3035 151.581 50.415C142.583 50.6575 133.507 51.1865 124.608 52.7825C115.582 54.4005 107.18 57.0425 98.9791 61.207C90.9177 65.3009 83.5413 70.6484 77.1453 77.0289C70.7503 83.4079 65.3899 90.7649 61.2864 98.8048C57.1084 106.99 54.4595 115.376 52.8365 124.385C51.2385 133.258 50.709 142.309 50.4655 151.281C50.3545 155.4 50.3065 159.52 50.2815 163.64C50.2515 168.532 50 174.608 50 179.5L50.0015 234.544L50 277.499L50.254 333.713C50.254 338.611 50.252 343.509 50.2815 348.407C50.3065 352.533 50.3545 356.658 50.466 360.783C50.709 369.771 51.2395 378.837 52.839 387.726C54.4615 396.742 57.1099 405.135 61.2844 413.327C65.3884 421.38 70.7498 428.748 77.1453 435.136C83.5408 441.525 90.9152 446.879 98.9751 450.978C107.181 455.151 115.587 457.798 124.619 459.418C133.513 461.014 142.587 461.544 151.581 461.786C155.71 461.898 159.84 461.945 163.971 461.97C168.874 462 173.777 461.999 178.681 461.999L235.003 462H277.608L333.822 461.998C338.716 461.998 343.61 462 348.504 461.97C352.626 461.945 356.748 461.898 360.869 461.786C369.849 461.543 378.908 461.014 387.789 459.416C396.798 457.796 405.184 455.15 413.369 450.98C421.415 446.881 428.777 441.526 435.16 435.136C441.543 428.749 446.893 421.382 450.989 413.33C455.158 405.134 457.802 396.738 459.422 387.715C461.017 378.83 461.546 369.767 461.788 360.783C461.9 356.658 461.947 352.533 461.972 348.407C462.002 343.509 462 338.611 462 333.713C462 333.713 461.997 278.492 461.997 277.499V234.499C461.997 233.766 462 178.314 462 178.314Z" fill="white"/>
</g>
<mask id="mask0_0_64" style="mask-type:luminance" maskUnits="userSpaceOnUse" x="50" y="50" width="412" height="412">
<path fill-rule="evenodd" clip-rule="evenodd" d="M462 178.314C462 173.423 462.002 168.531 461.972 163.64C461.947 159.519 461.9 155.4 461.788 151.281C461.546 142.305 461.016 133.251 459.42 124.375C457.801 115.37 455.157 106.99 450.991 98.8083C446.895 90.7669 441.544 83.4084 435.16 77.0289C428.778 70.6494 421.417 65.3024 413.373 61.209C405.183 57.0415 396.793 54.3985 387.779 52.78C378.902 51.186 369.846 50.6575 360.869 50.415C356.748 50.3035 352.626 50.2565 348.504 50.231C343.61 50.201 338.716 50.2035 333.822 50.2035L276.998 50H234.499L178.681 50.2035C173.777 50.2035 168.874 50.201 163.97 50.231C159.839 50.2565 155.71 50.3035 151.581 50.415C142.583 50.6575 133.507 51.1865 124.608 52.7825C115.582 54.4005 107.18 57.0425 98.9791 61.207C90.9177 65.3009 83.5413 70.6484 77.1453 77.0289C70.7503 83.4079 65.3899 90.7649 61.2864 98.8048C57.1084 106.99 54.4595 115.376 52.8365 124.385C51.2385 133.258 50.709 142.309 50.4655 151.281C50.3545 155.4 50.3065 159.52 50.2815 163.64C50.2515 168.532 50 174.608 50 179.5L50.0015 234.544L50 277.499L50.254 333.713C50.254 338.611 50.252 343.509 50.2815 348.407C50.3065 352.533 50.3545 356.658 50.466 360.783C50.709 369.771 51.2395 378.837 52.839 387.726C54.4615 396.742 57.1099 405.135 61.2844 413.327C65.3884 421.38 70.7498 428.748 77.1453 435.136C83.5408 441.525 90.9152 446.879 98.9751 450.978C107.181 455.151 115.587 457.798 124.619 459.418C133.513 461.014 142.587 461.544 151.581 461.786C155.71 461.898 159.84 461.945 163.971 461.97C168.874 462 173.777 461.999 178.681 461.999L235.003 462H277.608L333.822 461.998C338.716 461.998 343.61 462 348.504 461.97C352.626 461.945 356.748 461.898 360.869 461.786C369.849 461.543 378.908 461.014 387.789 459.416C396.798 457.796 405.184 455.15 413.369 450.98C421.415 446.881 428.777 441.526 435.16 435.136C441.543 428.749 446.893 421.382 450.989 413.33C455.158 405.134 457.802 396.738 459.422 387.715C461.017 378.83 461.546 369.767 461.788 360.783C461.9 356.658 461.947 352.533 461.972 348.407C462.002 343.509 462 338.611 462 333.713C462 333.713 461.997 278.492 461.997 277.499V234.499C461.997 233.766 462 178.314 462 178.314Z" fill="white"/>
</mask>
<g mask="url(#mask0_0_64)">
<path d="M50 50H462V462H50V50Z" fill="#FBF1D6"/>
<path d="M84.3333 180.467C84.3333 125.478 128.911 80.9 183.9 80.9H328.1C383.089 80.9 427.667 125.478 427.667 180.467V221.667C427.667 236.836 415.369 249.133 400.2 249.133H111.8C96.6306 249.133 84.3333 236.836 84.3333 221.667V180.467Z" fill="#9EC1D2"/>
<path fill-rule="evenodd" clip-rule="evenodd" d="M328.1 94.6333H183.9C136.496 94.6333 98.0667 133.062 98.0667 180.467V221.667C98.0667 229.251 104.215 235.4 111.8 235.4H400.2C407.785 235.4 413.933 229.251 413.933 221.667V180.467C413.933 133.062 375.504 94.6333 328.1 94.6333ZM183.9 80.9C128.911 80.9 84.3333 125.478 84.3333 180.467V221.667C84.3333 236.836 96.6306 249.133 111.8 249.133H400.2C415.369 249.133 427.667 236.836 427.667 221.667V180.467C427.667 125.478 383.089 80.9 328.1 80.9H183.9Z" fill="#453E22"/>
<path d="M50 276.6H462V437.967H50V276.6Z" fill="#D1112C"/>
<path d="M50 462H462V434.533H50V462Z" fill="#453E22"/>
<path d="M153 462C153 437.35 172.983 417.367 197.633 417.367H314.367C339.017 417.367 359 437.35 359 462V462H153V462Z" fill="#939393"/>
<path d="M176.235 347.023C176.235 356.283 168.728 363.79 159.467 363.79C150.207 363.79 142.7 356.283 142.7 347.023C142.7 337.763 150.207 330.255 159.467 330.255C168.728 330.255 176.235 337.763 176.235 347.023Z" fill="#CDCDCD"/>
<path fill-rule="evenodd" clip-rule="evenodd" d="M159.467 337.122C153.999 337.122 149.567 341.555 149.567 347.023C149.567 352.491 153.999 356.924 159.467 356.924C164.935 356.924 169.368 352.491 169.368 347.023C169.368 341.555 164.935 337.122 159.467 337.122ZM135.833 347.023C135.833 333.97 146.415 323.389 159.467 323.389C172.52 323.389 183.102 333.97 183.102 347.023C183.102 360.076 172.52 370.657 159.467 370.657C146.415 370.657 135.833 360.076 135.833 347.023Z" fill="#453E22"/>
<path d="M370.507 347.023C370.507 356.283 363 363.79 353.74 363.79C344.479 363.79 336.972 356.283 336.972 347.023C336.972 337.763 344.479 330.255 353.74 330.255C363 330.255 370.507 337.763 370.507 347.023Z" fill="#CDCDCD"/>
<path fill-rule="evenodd" clip-rule="evenodd" d="M353.74 337.122C348.272 337.122 343.839 341.555 343.839 347.023C343.839 352.491 348.272 356.924 353.74 356.924C359.208 356.924 363.641 352.491 363.641 347.023C363.641 341.555 359.208 337.122 353.74 337.122ZM330.106 347.023C330.106 333.97 340.687 323.389 353.74 323.389C366.792 323.389 377.374 333.97 377.374 347.023C377.374 360.076 366.792 370.657 353.74 370.657C340.687 370.657 330.106 360.076 330.106 347.023Z" fill="#453E22"/>
<path d="M254.498 371.875C242.31 371.875 230.122 369.448 222.529 367.575C219.596 366.851 217.28 369.784 219.093 372.202C224.813 379.831 236.373 391.188 254.498 391.188C272.623 391.188 284.183 379.831 289.903 372.202C291.716 369.784 289.4 366.851 286.467 367.575C278.874 369.448 266.686 371.875 254.498 371.875Z" fill="#E9D982"/>
<path d="M67.1667 327.885C67.1667 322.552 71.4899 318.229 76.8229 318.229V318.229C82.1559 318.229 86.4792 322.552 86.4792 327.885V362.219C86.4792 367.552 82.1559 371.875 76.8229 371.875V371.875C71.4899 371.875 67.1667 367.552 67.1667 362.219V327.885Z" fill="#FAA85D"/>
<path d="M424.233 330.031C424.233 324.698 428.557 320.375 433.89 320.375V320.375C439.223 320.375 443.546 324.698 443.546 330.031V364.365C443.546 369.698 439.223 374.021 433.89 374.021V374.021C428.557 374.021 424.233 369.698 424.233 364.365V330.031Z" fill="#FAA85D"/>
<path d="M166.733 50H342.692V78.325C342.692 93.4944 330.394 105.792 315.225 105.792H194.2C179.031 105.792 166.733 93.4944 166.733 78.325V50Z" fill="#0A488F"/>
<path d="M360.337 180.112L378.421 149.567L396.107 180.345C404.039 194.148 394.075 211.367 378.154 211.367C362.114 211.367 352.165 193.915 360.337 180.112Z" fill="#CDCDCD"/>
<path fill-rule="evenodd" clip-rule="evenodd" d="M378.51 135.939L402.061 176.924C412.624 195.305 399.355 218.233 378.154 218.233C356.795 218.233 343.547 194.994 354.428 176.614L378.51 135.939ZM378.333 163.195L366.246 183.611C360.784 192.836 367.434 204.5 378.154 204.5C388.795 204.5 395.455 192.992 390.154 183.766L378.333 163.195Z" fill="#0A488F"/>
</g>
<defs>
<filter id="filter0_d_0_64" x="45" y="50" width="422" height="422" filterUnits="userSpaceOnUse" color-interpolation-filters="sRGB">
<feFlood flood-opacity="0" result="BackgroundImageFix"/>
<feColorMatrix in="SourceAlpha" type="matrix" values="0 0 0 0 0 0 0 0 0 0 0 0 0 0 0 0 0 0 127 0" result="hardAlpha"/>
<feOffset dy="5"/>
<feGaussianBlur stdDeviation="2.5"/>
<feColorMatrix type="matrix" values="0 0 0 0 0 0 0 0 0 0 0 0 0 0 0 0 0 0 0.3 0"/>
<feBlend mode="normal" in2="BackgroundImageFix" result="effect1_dropShadow_0_64"/>
<feBlend mode="normal" in="SourceGraphic" in2="effect1_dropShadow_0_64" result="shape"/>
</filter>
</defs>
</svg>
