<svg width="512" height="512" viewBox="0 0 512 512" fill="none" xmlns="http://www.w3.org/2000/svg">
<g clip-path="url(#clip0_109_550)">
<rect x="50" y="50" width="412" height="412" rx="100" fill="url(#paint0_linear_109_550)"/>
<path d="M199.111 80.9H312.889C351.032 80.9 367.727 81.0213 385.663 86.6404C404.069 93.4242 418.576 107.931 425.36 126.337C430.979 144.27 431.1 160.971 431.1 199.111V312.889C431.1 351.032 430.979 367.727 425.36 385.663C418.575 404.07 404.069 418.576 385.663 425.357C367.727 430.979 351.033 431.1 312.889 431.1H199.111C160.967 431.1 144.27 430.979 126.338 425.357C107.932 418.576 93.4245 404.07 86.6404 385.663C81.0213 367.727 80.9 351.032 80.9 312.889V199.111C80.9 160.971 81.0214 144.27 86.6403 126.337C93.4241 107.931 107.931 93.4241 126.337 86.6402C144.27 81.0214 160.968 80.9 199.111 80.9Z" stroke="white" stroke-width="6.86667"/>
<rect x="50" y="50" width="412" height="412" fill="#FBF1D6"/>
<path d="M216.192 87.7667H295.808C326.266 87.7667 340.185 87.8225 351.458 90.7579C383.962 99.2212 409.346 124.604 417.809 157.108C420.744 168.381 420.8 182.301 420.8 212.759C420.8 221.472 420.744 224.519 420.135 226.857C418.255 234.081 412.614 239.721 405.391 241.602C403.052 242.211 400.005 242.267 391.292 242.267H120.708C111.995 242.267 108.948 242.211 106.609 241.602C99.3862 239.721 93.7455 234.081 91.8647 226.857C91.2559 224.519 91.2 221.472 91.2 212.759C91.2 182.301 91.2559 168.381 94.1912 157.108C102.655 124.604 128.038 99.2212 160.542 90.7579C171.815 87.8225 185.734 87.7667 216.192 87.7667Z" fill="#9EC1D2" stroke="#453E22" stroke-width="13.7333"/>
<rect x="-15.2333" y="276.6" width="542.467" height="161.367" fill="#D1112C"/>
<rect width="659.2" height="27.4667" transform="matrix(1 0 0 -1 -73.6 462)" fill="#453E22"/>
<path fill-rule="evenodd" clip-rule="evenodd" d="M197.633 417.367C172.983 417.367 153 437.35 153 462L153 499.767H359V462C359 437.35 339.017 417.367 314.367 417.367H197.633Z" fill="#939393"/>
<circle cx="159.467" cy="347.023" r="16.7674" fill="#CDCDCD" stroke="#453E22" stroke-width="13.7333"/>
<circle cx="353.74" cy="347.023" r="16.7674" fill="#CDCDCD" stroke="#453E22" stroke-width="13.7333"/>
<path d="M254.498 371.875C244.584 371.875 234.67 370.27 227.23 368.662C223.658 367.89 221.871 367.504 220.706 368.205C219.774 368.765 219.069 369.977 219.043 371.064C219.01 372.424 220.057 373.593 222.15 375.932C228.525 383.056 239.161 391.188 254.498 391.188C269.835 391.188 280.471 383.056 286.846 375.932C288.939 373.593 289.986 372.424 289.953 371.064C289.927 369.977 289.222 368.765 288.29 368.205C287.124 367.504 285.338 367.89 281.766 368.662C274.326 370.27 264.412 371.875 254.498 371.875Z" fill="#E9D982"/>
<path d="M67.1666 327.885C67.1666 322.552 71.4899 318.229 76.8229 318.229V318.229C82.1559 318.229 86.4791 322.552 86.4791 327.885V362.219C86.4791 367.552 82.1559 371.875 76.8229 371.875V371.875C71.4899 371.875 67.1666 367.552 67.1666 362.219V327.885Z" fill="#FAA85D"/>
<path d="M424.233 330.031C424.233 324.698 428.557 320.375 433.89 320.375V320.375C439.223 320.375 443.546 324.698 443.546 330.031V364.365C443.546 369.698 439.223 374.021 433.89 374.021V374.021C428.557 374.021 424.233 369.698 424.233 364.365V330.031Z" fill="#FAA85D"/>
<path d="M166.733 15.6667H341.833V60.9867C341.833 76.3695 341.833 84.0609 338.84 89.9363C336.206 95.1045 332.005 99.3063 326.836 101.94C320.961 104.933 313.27 104.933 297.887 104.933H210.68C195.297 104.933 187.606 104.933 181.73 101.94C176.562 99.3063 172.36 95.1045 169.727 89.9363C166.733 84.0609 166.733 76.3695 166.733 60.9867V15.6667Z" fill="#0A488F"/>
<path d="M360.337 180.112L378.421 149.567L396.107 180.345C404.039 194.149 394.075 211.367 378.154 211.367C362.114 211.367 352.165 193.915 360.337 180.112Z" fill="#CDCDCD" stroke="#0A488F" stroke-width="13.7333"/>
</g>
<defs>
<linearGradient id="paint0_linear_109_550" x1="256" y1="50" x2="256" y2="462" gradientUnits="userSpaceOnUse">
<stop stop-color="#57B8EA"/>
<stop offset="1" stop-color="#2765D9"/>
</linearGradient>
<clipPath id="clip0_109_550">
<rect x="50" y="50" width="412" height="412" rx="100" fill="white"/>
</clipPath>
</defs>
</svg>
