<svg width="100%" height="100%" viewBox="0 0 450 425" version="1.1" xmlns="http://www.w3.org/2000/svg" xmlns:xlink="http://www.w3.org/1999/xlink" xml:space="preserve" xmlns:serif="http://www.serif.com/" style="fill-rule:evenodd;clip-rule:evenodd;stroke-linejoin:round;stroke-miterlimit:2;">
    <g>
        <clipPath id="_clip1">
            <path d="M219.639,3.728C334.593,3.728 427.922,97.056 427.922,212.011C427.922,326.965 334.593,420.294 219.639,420.294C104.684,420.294 11.356,326.965 11.356,212.011C11.356,97.056 104.684,3.728 219.639,3.728Z"/>
        </clipPath>
        <g clip-path="url(#_clip1)">
            <g>
                <rect x="-0" y="0" width="449.23" height="475.167" style="fill:#fff;"/>
                <path d="M183.589,-13.797C130.889,-9.897 81.989,11.803 45.289,47.603C30.689,61.903 22.189,71.903 12.689,86.203C-4.911,112.603 -14.911,140.303 -20.111,177.703C-21.711,189.703 -21.711,218.803 -20.011,227.903L-18.711,235.203L67.089,235.203L67.089,201.903L72.189,202.603C76.989,203.303 143.789,205.103 164.389,205.203L174.089,205.203L174.089,236.703C174.089,266.403 173.989,268.203 172.389,267.403C171.389,266.903 163.189,264.603 154.089,262.303C138.789,258.403 128.189,255.403 93.589,245.203C86.489,243.003 78.489,240.903 75.989,240.303C73.489,239.703 70.589,239.003 69.589,238.603C67.989,237.903 67.889,238.303 68.289,242.503C68.889,247.503 68.589,247.903 66.189,245.903C65.289,245.103 62.689,243.803 60.389,242.903C56.489,241.403 56.189,241.403 55.889,243.003C55.589,244.403 54.589,244.603 48.889,244.403C36.189,243.703 34.389,248.003 44.889,253.703C78.489,272.303 93.489,280.403 104.589,285.803L117.589,292.203L-5.011,292.203L-4.411,294.403C-2.511,301.003 8.989,322.603 15.589,332.203L23.189,343.203L39.289,343.203L38.889,356.303L38.489,369.303L57.789,369.103L76.989,369.003L88.289,376.303C112.089,391.703 134.789,401.103 161.889,406.903C173.689,409.403 176.289,409.603 198.089,409.603C219.889,409.603 222.489,409.403 234.189,406.903C259.889,401.403 279.189,393.503 305.689,377.603L319.689,369.203L374.089,369.203L374.089,356.803L381.32,350.799L391.019,343.168C398.719,335.168 413.199,324.951 414.999,319.051C415.899,315.751 416.621,311.503 417.721,310.103C420.121,306.703 425.197,294.84 404.089,293.403C403.191,293.342 399.989,292.203 387.089,292.203L370.089,292.203L370.089,278.203L359.989,270.503C348.689,261.803 348.089,261.403 348.089,263.603C348.089,264.403 351.289,267.703 355.089,270.803C363.289,277.403 364.089,278.603 364.089,284.103C364.089,287.203 363.389,288.903 361.089,291.403L358.189,294.703L359.289,291.103C360.789,286.003 359.489,280.703 355.989,276.903L352.889,273.703L353.489,277.003C355.089,286.303 342.789,288.203 282.489,288.203C250.489,288.203 236.889,287.703 215.089,285.903C213.089,285.703 212.489,286.203 212.289,288.203C212.189,289.603 212.489,291.303 212.889,292.003C214.389,294.303 228.889,295.303 268.089,295.903C306.989,296.403 337.589,295.403 346.389,293.103C350.589,292.103 351.389,292.203 354.589,294.203C356.489,295.403 358.089,297.003 358.089,297.803C358.089,299.903 352.889,302.103 345.389,303.203C336.189,304.503 225.389,304.503 224.589,303.203C224.289,302.603 223.289,302.203 222.489,302.203C220.789,302.203 220.589,305.803 222.189,306.803C224.089,307.903 334.589,307.303 343.589,306.203C353.789,304.803 358.789,303.503 359.289,302.003C359.889,300.203 362.589,301.703 365.589,305.603C368.889,309.903 368.289,311.003 361.189,314.003C352.389,317.803 337.989,318.503 280.789,317.803L227.989,317.203L228.289,319.503L228.589,321.703L281.589,321.603C335.289,321.603 350.689,320.803 361.889,317.603C364.789,316.803 367.989,315.303 369.089,314.203C370.989,312.303 370.989,312.303 373.089,314.903C376.089,318.803 375.689,322.803 371.989,325.103C367.489,327.903 354.489,330.103 336.089,331.203C317.789,332.303 245.389,332.503 234.789,331.503L228.089,330.903L225.989,326.303C224.889,323.803 220.689,315.803 216.589,308.703C212.489,301.503 208.689,293.703 208.189,291.203C207.589,288.703 206.189,284.303 205.089,281.303C203.189,276.303 203.089,276.003 204.789,276.703C213.989,280.303 240.189,282.203 281.089,282.203C327.189,282.103 345.789,280.403 348.189,276.003C349.789,273.003 346.389,268.303 344.689,271.103C342.989,273.903 311.789,276.203 275.989,276.203C247.689,276.203 230.989,275.203 212.089,272.303C205.189,271.203 195.089,269.803 189.589,269.103C184.089,268.503 178.789,267.503 177.889,267.003C176.189,266.203 176.089,263.703 176.089,235.903L176.089,205.703L354.089,205.703L353.989,214.203C353.889,222.303 353.889,222.603 352.589,219.503C350.489,214.903 346.189,212.203 340.789,212.203C337.089,212.203 335.889,212.703 334.289,214.703L332.289,217.203L327.589,214.503C322.189,211.503 320.289,211.403 293.589,212.703C281.889,213.203 277.289,213.803 276.489,214.803C275.589,215.903 274.789,215.803 271.489,214.203C266.089,211.403 257.689,211.503 251.989,214.503C248.589,216.303 246.889,218.103 244.689,222.503C241.889,228.003 241.789,228.403 242.989,233.803C245.289,244.103 255.989,251.503 265.789,249.703C271.989,248.603 277.689,244.703 279.789,240.203C281.789,235.703 283.089,235.103 283.089,238.503C283.089,243.003 286.289,250.103 290.289,254.703C298.089,263.503 310.389,267.303 319.689,263.703C325.689,261.403 331.289,256.403 333.589,251.203C334.789,248.603 335.889,247.303 336.789,247.603C337.589,247.903 340.389,247.703 343.089,247.103C348.189,246.003 352.289,242.503 354.189,237.503L355.089,235.103L415.889,235.703L417.189,225.703C418.689,213.503 417.889,185.003 415.589,170.203C413.389,155.403 407.689,132.903 403.489,122.503C381.989,69.003 334.989,22.503 280.789,1.103C250.089,-10.997 216.089,-16.197 183.589,-13.797ZM292.489,72.603C320.289,77.903 339.889,88.803 344.089,101.203C345.889,106.503 345.889,109.303 343.989,106.103C342.989,104.103 339.089,102.603 333.389,101.803C329.789,101.303 301.189,98.003 300.789,97.603C298.689,95.403 287.989,94.003 270.089,93.503C254.189,93.103 248.689,93.303 240.089,94.803C234.289,95.803 224.189,96.603 217.589,96.703C210.989,96.803 202.889,97.403 199.489,98.003C193.089,99.303 173.089,105.803 167.089,108.603C165.189,109.403 158.389,112.203 152.089,114.603C145.789,117.103 134.989,121.503 128.089,124.503C121.189,127.503 110.189,132.303 103.589,135.203C96.989,138.003 88.189,141.603 84.089,143.103C79.989,144.703 75.789,146.203 74.889,146.703C71.089,148.303 74.289,140.303 79.389,135.403C81.189,133.603 93.189,126.803 106.089,120.103C118.989,113.503 136.989,104.203 146.089,99.403C155.189,94.703 165.489,89.303 169.089,87.603C179.089,82.603 216.489,72.903 233.089,70.803C242.189,69.703 283.889,71.003 292.489,72.603ZM290.732,99.081L297.681,101.133L297.889,148.103L297.589,197.703L244.589,197.703L241.389,168.703C239.589,152.703 237.489,132.503 236.689,123.703C235.789,114.903 234.789,105.403 234.489,102.603L235.222,98.523L244.255,97.18C256.438,97.908 280.319,99.279 290.732,99.081ZM226.489,106.903C226.889,111.203 227.789,121.203 228.589,129.203C233.489,177.503 235.189,196.503 234.589,197.003C234.189,197.403 221.989,197.803 207.389,198.003L180.789,198.303L181.489,193.503C182.989,181.603 186.089,135.503 186.089,123.703C186.089,116.503 186.389,109.103 186.689,107.103C187.289,103.603 187.389,103.603 194.889,101.903C204.889,99.803 206.889,99.503 217.189,99.303L225.889,99.203L226.489,106.903ZM336.94,107.254C338.84,107.854 341.932,109.516 343.611,110.687C346.911,112.987 346.489,109.903 349.089,149.203C350.189,166.003 351.289,183.903 351.689,188.903L352.389,198.203L347.889,198.203C343.389,198.203 306.778,200.184 306.278,196.484C305.378,190.984 303.974,138.839 302.274,123.939C301.474,116.839 302.898,106.462 302.598,104.662C301.898,100.962 331.34,105.354 336.94,107.254ZM184.089,106.303C184.089,106.903 183.389,112.003 182.589,117.603C181.789,123.103 179.289,142.803 176.989,161.203C174.789,179.603 172.789,195.303 172.589,195.903C172.289,196.903 168.889,197.203 160.489,197.203L148.789,197.203L149.489,191.903C150.689,181.803 151.989,158.503 152.589,137.703C153.089,119.403 153.289,116.603 154.789,115.803C156.789,114.703 182.189,105.303 183.389,105.203C183.789,105.203 184.089,105.703 184.089,106.303ZM149.089,125.203C148.589,129.303 147.989,136.503 147.689,141.203C147.289,145.903 145.889,160.003 144.589,172.703C143.189,185.303 142.089,196.003 142.089,196.403C142.089,196.903 134.589,197.203 125.489,197.203L108.889,197.203L109.489,193.403C110.589,186.603 113.089,150.803 113.089,141.903L113.089,133.003L118.289,130.903C121.189,129.703 129.389,126.203 136.589,123.103C143.689,120.003 149.589,117.503 149.689,117.603C149.789,117.603 149.489,121.103 149.089,125.203ZM110.489,139.903C110.089,143.103 109.689,145.803 109.589,146.003C108.989,146.703 98.689,150.103 98.289,149.703C98.089,149.503 97.589,147.303 97.389,144.703L96.789,140.203L103.189,137.203C106.689,135.603 109.889,134.303 110.389,134.203C110.789,134.203 110.789,136.803 110.489,139.903ZM95.089,147.903C95.089,155.503 92.289,194.003 91.589,195.903C91.289,196.803 88.489,197.203 82.189,197.203C73.189,197.203 73.089,197.203 72.389,194.403C72.089,192.903 72.289,184.003 72.889,174.703C73.589,165.303 74.089,155.603 74.089,153.103L74.089,148.503L83.889,144.903C89.189,142.903 93.889,141.303 94.389,141.303C94.789,141.203 95.089,144.203 95.089,147.903ZM72.089,152.203C72.089,153.503 70.789,155.103 68.589,156.303C65.489,158.203 65.089,158.803 65.589,161.603C70.489,190.903 71.489,199.203 70.289,199.203C69.689,199.203 68.489,194.803 67.589,189.403C66.589,184.103 64.889,174.603 63.589,168.303C62.089,160.203 61.689,156.703 62.489,156.003C63.389,155.203 70.789,150.703 71.889,150.303C71.989,150.203 72.089,151.103 72.089,152.203ZM107.689,154.903C107.389,157.003 106.489,165.903 105.589,174.703C103.189,199.003 103.689,197.203 98.889,197.203C94.989,197.203 94.889,197.103 95.389,194.403C95.689,192.903 96.489,183.203 97.189,172.903C98.389,154.303 98.489,154.103 100.989,152.703C102.389,151.903 104.689,151.303 105.889,151.203C108.089,151.203 108.189,151.503 107.689,154.903ZM323.189,221.603C325.289,223.103 328.289,226.103 329.789,228.403C332.189,231.903 332.589,233.603 332.589,239.303C332.589,245.203 332.189,246.603 329.589,250.403C325.289,256.603 319.289,259.403 311.489,259.003C306.689,258.703 304.589,258.003 301.689,255.903C288.989,246.203 290.389,227.403 304.289,220.303C309.889,217.403 317.589,218.003 323.189,221.603ZM263.389,223.903C262.689,224.103 261.489,224.103 260.889,223.903C260.189,223.603 260.689,223.403 262.089,223.403C263.489,223.403 263.989,223.603 263.389,223.903ZM270.789,228.603C271.889,231.903 271.189,234.503 268.489,236.903C264.889,240.203 262.389,239.803 260.389,235.703C258.289,231.303 259.489,226.903 262.889,226.403C264.089,226.203 265.089,225.703 265.089,225.203C265.089,223.503 270.089,226.503 270.789,228.603ZM337.489,231.003C337.989,232.703 337.989,234.903 337.589,235.903C337.089,237.303 336.589,236.703 335.489,233.203C333.789,227.603 333.789,226.903 335.289,227.403C335.989,227.703 336.989,229.303 337.489,231.003ZM75.089,245.303C75.089,250.503 72.689,250.103 72.289,244.903C72.089,242.103 72.389,241.203 73.489,241.203C74.689,241.203 75.089,242.303 75.089,245.303ZM67.589,249.203C71.489,250.703 95.489,260.203 121.089,270.203C146.689,280.203 173.189,290.403 180.089,292.803C191.989,296.803 192.889,297.303 197.989,302.803C211.389,317.203 219.189,327.403 217.889,328.803C217.489,329.103 211.089,327.703 203.389,325.703C191.989,322.703 189.189,321.603 187.089,319.303C185.489,317.503 177.589,313.103 166.089,307.703C82.389,268.203 49.889,252.503 46.589,249.803C44.689,248.403 44.889,248.303 50.389,248.203C54.689,248.203 56.289,247.803 56.789,246.603C57.089,245.703 57.989,245.303 58.989,245.803C59.889,246.203 63.789,247.703 67.589,249.203Z" style="fill-rule:nonzero;"/>
                <path d="M307.089,223.303C305.689,223.903 303.489,225.303 302.289,226.503C296.489,231.903 295.589,238.803 299.689,246.903C302.889,253.503 308.889,256.803 315.389,255.803C330.089,253.503 335.189,235.803 324.089,225.803C320.489,222.603 319.489,222.203 314.789,222.303C311.989,222.303 308.489,222.803 307.089,223.303ZM320.289,229.703C321.689,231.003 323.189,233.103 323.589,234.303C324.689,237.703 323.289,242.803 320.389,245.603C318.189,247.803 316.989,248.203 313.689,248.003C310.389,247.803 309.289,247.103 307.389,244.303C305.889,242.103 305.089,239.403 305.089,236.603C305.089,233.103 305.589,231.903 308.189,229.803C312.189,226.403 316.689,226.403 320.289,229.703Z" style="fill-rule:nonzero;"/>
                <path d="M426.289,297.603C425.589,300.303 425.189,302.703 425.489,303.003C426.389,303.803 428.189,298.003 427.889,295.303C427.689,293.203 427.289,293.703 426.289,297.603Z" style="fill-rule:nonzero;"/>
                <path d="M32.389,362.903C33.289,363.103 34.889,363.103 35.889,362.903C36.789,362.603 35.989,362.403 34.089,362.403C32.189,362.403 31.389,362.603 32.389,362.903Z" style="fill-rule:nonzero;"/>
                <rect x="-183.214" y="350.799" width="749.546" height="111.968"/>
                <rect x="362.308" y="335.397" width="86.922" height="27.006"/>
                <rect x="354.574" y="-14.368" width="93.474" height="250.11"/>
            </g>
        </g>
    </g>
</svg>
